# xmcd
#
# Track frame offsets:
#	150
#	12822
#	29355
#	46606
#	60637
#	79698
#	92721
#	107923
#	126691
#	139275
#	151659
#	164573
#	175783
#	190827
#	205435
#	220802
#
# Disc length: 3122 seconds
#
# Revision: 1
# Processed by: cddbd v1.5.2PL0 Copyright (c) Steve Scherf et al.
# Submitted via: audiograbber 1.83.01
#
DISCID=db0c3010
DTITLE=Brent Moyer - Tennessee Tears
DYEAR=2014
DGENRE=Country
TTITLE0=Honky Tonk Proud
TTITLE1=Cry For The Last Time
TTITLE2=Honky Tonk Wings
TTITLE3=Love Will Find A Way
TTITLE4=Tennessee Tears
TTITLE5=Ducky Flamenco
TTITLE6=Last Of The Honky Tonk Kind
TTITLE7=Other Side Of Pride
TTITLE8=Never Stop
TTITLE9=Love Don't Care
TTITLE10=Getting Down In Jackson Hole
TTITLE11=Hard To Be Me
TTITLE12=Things I Can't Do
TTITLE13=Fight The Fight
TTITLE14=Passing Of A Season
TTITLE15=Only For A Moment
EXTD=
EXTT0=
EXTT1=
EXTT2=
EXTT3=
EXTT4=
EXTT5=
EXTT6=
EXTT7=
EXTT8=
EXTT9=
EXTT10=
EXTT11=
EXTT12=
EXTT13=
EXTT14=
EXTT15=
PLAYORDER=
